<svg xmlns="http://www.w3.org/2000/svg" xmlns:xlink="http://www.w3.org/1999/xlink" width="250" zoomAndPan="magnify" viewBox="0 0 187.5 187.499992" height="250" preserveAspectRatio="xMidYMid meet" version="1.0"><defs><g/><clipPath id="08d5e68ab6"><path d="M 37.195312 53.984375 L 81 53.984375 L 81 75 L 37.195312 75 Z M 37.195312 53.984375 " clip-rule="nonzero"/></clipPath><clipPath id="d67935c438"><path d="M 112 78 L 149.929688 78 L 149.929688 84 L 112 84 Z M 112 78 " clip-rule="nonzero"/></clipPath><clipPath id="5554c27a87"><path d="M 104 79 L 114 79 L 114 87.621094 L 104 87.621094 Z M 104 79 " clip-rule="nonzero"/></clipPath><clipPath id="6b6a1da19b"><path d="M 129 84 L 143 84 L 143 87.621094 L 129 87.621094 Z M 129 84 " clip-rule="nonzero"/></clipPath></defs><g clip-path="url(#08d5e68ab6)"><path fill="#820f0f" d="M 78.316406 54.277344 C 79.125 54.144531 79.941406 53.996094 80.765625 53.984375 C 78.386719 54.351562 76.039062 54.929688 73.792969 55.800781 C 71.722656 56.597656 69.765625 57.691406 68 59.035156 C 66.355469 60.265625 64.882812 61.703125 63.320312 63.03125 C 61.5625 64.488281 59.640625 65.742188 57.652344 66.867188 C 53.390625 69.261719 48.839844 71.085938 44.203125 72.613281 C 42.203125 73.257812 40.1875 73.859375 38.152344 74.375 C 37.851562 74.441406 37.554688 74.546875 37.246094 74.566406 C 38.410156 74.28125 39.550781 73.917969 40.695312 73.578125 C 45.554688 72.085938 50.332031 70.285156 54.84375 67.9375 C 58.03125 66.269531 61.082031 64.316406 63.761719 61.90625 C 64.398438 61.355469 64.972656 60.734375 65.621094 60.191406 C 69.195312 57.089844 73.675781 55.117188 78.316406 54.277344 Z M 78.316406 54.277344 " fill-opacity="1" fill-rule="nonzero"/></g><path fill="#820f0f" d="M 89.582031 54.65625 C 94.730469 54.320312 99.902344 54.71875 105.007812 55.441406 C 106.339844 55.542969 107.585938 56.054688 108.84375 56.472656 C 112.777344 57.820312 116.671875 59.308594 120.445312 61.058594 C 117.222656 60.769531 113.984375 60.675781 110.746094 60.667969 C 106.878906 60.648438 103.011719 60.761719 99.152344 60.953125 C 98.230469 61.003906 97.300781 61.035156 96.390625 60.867188 C 95.667969 60.730469 94.957031 60.457031 94.390625 59.976562 C 92.855469 58.597656 91.394531 57.128906 89.734375 55.894531 C 89.449219 55.667969 89.089844 55.511719 88.886719 55.199219 C 88.804688 55.09375 88.789062 54.921875 88.914062 54.84375 C 89.105469 54.703125 89.351562 54.683594 89.582031 54.65625 Z M 89.582031 54.65625 " fill-opacity="1" fill-rule="nonzero"/><path fill="#820f0f" d="M 81.335938 55.59375 C 82.648438 55.457031 83.996094 55.523438 85.269531 55.898438 C 86.960938 56.382812 88.488281 57.355469 89.734375 58.59375 C 90.777344 59.625 91.625 60.835938 92.335938 62.117188 C 87.246094 62.324219 82.15625 62.511719 77.066406 62.722656 C 76.363281 61.199219 75.460938 59.75 74.269531 58.5625 C 74.074219 58.355469 73.804688 58.191406 73.714844 57.90625 C 73.699219 57.679688 73.949219 57.585938 74.117188 57.5 C 74.976562 57.140625 75.859375 56.839844 76.75 56.5625 C 78.246094 56.109375 79.777344 55.746094 81.335938 55.59375 Z M 81.335938 55.59375 " fill-opacity="1" fill-rule="nonzero"/><path fill="#820f0f" d="M 71.371094 58.773438 C 71.707031 58.605469 72.035156 58.375 72.421875 58.359375 C 72.71875 58.390625 72.945312 58.609375 73.167969 58.789062 C 73.820312 59.375 74.328125 60.105469 74.8125 60.835938 C 75.082031 61.25 75.335938 61.675781 75.574219 62.109375 C 75.652344 62.269531 75.746094 62.460938 75.664062 62.636719 C 75.546875 62.820312 75.300781 62.800781 75.113281 62.804688 C 73.71875 62.785156 72.324219 62.808594 70.929688 62.851562 C 69.59375 62.910156 68.253906 62.984375 66.933594 63.199219 C 66.453125 63.28125 65.964844 63.371094 65.519531 63.574219 C 66.535156 61.839844 68.125 60.503906 69.871094 59.535156 C 70.359375 59.257812 70.867188 59.019531 71.371094 58.773438 Z M 71.371094 58.773438 " fill-opacity="1" fill-rule="nonzero"/><path fill="#820f0f" d="M 103.75 61.816406 C 106.800781 61.742188 109.851562 61.664062 112.898438 61.523438 C 116.1875 61.410156 119.484375 61.457031 122.761719 61.761719 C 125.597656 62.011719 128.425781 62.3125 131.246094 62.683594 C 132.734375 62.886719 134.222656 63.101562 135.695312 63.394531 C 137.875 63.820312 140.082031 64.25 142.128906 65.148438 C 142.742188 65.421875 143.34375 65.730469 143.914062 66.089844 C 142.753906 65.640625 141.5625 65.257812 140.339844 65.023438 C 139.820312 64.917969 139.289062 64.867188 138.769531 64.761719 C 138.179688 64.714844 137.585938 64.769531 136.996094 64.761719 C 135.15625 64.773438 133.3125 64.832031 131.488281 65.082031 C 131.25 65.121094 130.972656 65.164062 130.824219 65.375 C 130.695312 65.582031 130.792969 65.839844 130.886719 66.042969 C 131.519531 67.15625 132.085938 68.304688 132.675781 69.445312 C 133.074219 70.25 133.496094 71.042969 133.882812 71.851562 C 132.289062 69.304688 130.085938 67.152344 127.53125 65.570312 C 127.097656 65.300781 126.648438 65.046875 126.1875 64.828125 C 125.558594 64.539062 124.875 64.378906 124.191406 64.269531 C 122.878906 64.101562 121.582031 63.820312 120.277344 63.605469 C 114.050781 62.527344 107.738281 61.894531 101.414062 61.882812 C 102.191406 61.828125 102.972656 61.839844 103.75 61.816406 Z M 103.75 61.816406 " fill-opacity="1" fill-rule="nonzero"/><path fill="#820f0f" d="M 119.296875 65.273438 C 120.28125 65.480469 121.277344 65.839844 122.035156 66.527344 C 122.472656 66.917969 122.796875 67.4375 122.9375 68.007812 C 123.03125 68.382812 122.980469 68.804688 122.75 69.121094 C 122.46875 69.511719 122.019531 69.734375 121.574219 69.878906 C 121.980469 69.570312 122.402344 69.21875 122.574219 68.714844 C 122.738281 68.246094 122.582031 67.730469 122.296875 67.34375 C 121.847656 66.730469 121.210938 66.289062 120.566406 65.90625 C 120.15625 65.667969 119.730469 65.457031 119.296875 65.273438 Z M 119.296875 65.273438 " fill-opacity="1" fill-rule="nonzero"/><path fill="#820f0f" d="M 138.261719 65.269531 C 138.535156 65.234375 138.8125 65.222656 139.085938 65.25 C 140.390625 65.515625 141.707031 65.738281 142.96875 66.15625 C 143.339844 66.277344 143.710938 66.425781 144.011719 66.679688 C 144.414062 66.996094 144.671875 67.457031 144.839844 67.9375 C 145.132812 68.796875 145.4375 69.652344 145.648438 70.535156 C 145.734375 70.910156 145.832031 71.332031 145.636719 71.691406 C 145.523438 71.921875 145.253906 72.035156 145.007812 72.019531 C 142.519531 71.832031 140.027344 71.734375 137.535156 71.691406 C 136.894531 71.667969 136.234375 71.753906 135.621094 71.542969 C 134.929688 71.304688 134.425781 70.730469 134.019531 70.148438 C 133.351562 69.179688 132.757812 68.164062 132.203125 67.125 C 132.03125 66.777344 131.871094 66.375 131.972656 65.980469 C 132.050781 65.691406 132.359375 65.5625 132.632812 65.542969 C 134.503906 65.359375 136.386719 65.363281 138.261719 65.269531 Z M 138.261719 65.269531 " fill-opacity="1" fill-rule="nonzero"/><path fill="#820f0f" d="M 117.753906 65.332031 C 118.726562 65.257812 119.648438 65.695312 120.464844 66.183594 C 120.984375 66.5 121.488281 66.871094 121.839844 67.378906 C 122.125 67.789062 122.273438 68.308594 122.179688 68.804688 C 122.046875 69.253906 121.636719 69.5625 121.203125 69.691406 C 120.648438 69.855469 120.054688 69.835938 119.488281 69.726562 C 118.15625 69.46875 117.003906 68.5 116.464844 67.265625 C 116.296875 66.894531 116.273438 66.425781 116.539062 66.09375 C 116.847656 65.722656 117.253906 65.378906 117.753906 65.332031 Z M 117.753906 65.332031 " fill-opacity="1" fill-rule="nonzero"/><path fill="#820f0f" d="M 124.109375 65.359375 C 125.070312 65.195312 126.039062 65.574219 126.820312 66.113281 C 127.320312 66.457031 127.765625 66.875 128.175781 67.320312 C 128.550781 67.707031 128.789062 68.210938 128.921875 68.726562 C 129.015625 69.144531 129.019531 69.628906 128.746094 69.980469 C 128.421875 70.390625 127.867188 70.519531 127.367188 70.511719 C 126.035156 70.382812 124.769531 69.660156 123.984375 68.578125 C 123.695312 68.1875 123.464844 67.757812 123.292969 67.308594 C 123.152344 66.894531 123.113281 66.425781 123.289062 66.015625 C 123.429688 65.679688 123.75 65.425781 124.109375 65.359375 Z M 124.109375 65.359375 " fill-opacity="1" fill-rule="nonzero"/><path fill="#820f0f" d="M 126.34375 65.503906 C 127.195312 65.964844 128.042969 66.449219 128.769531 67.089844 C 129.136719 67.421875 129.492188 67.796875 129.683594 68.261719 C 129.835938 68.609375 129.851562 69.023438 129.679688 69.363281 C 129.546875 69.644531 129.316406 69.859375 129.074219 70.046875 C 129.324219 69.589844 129.386719 69.039062 129.21875 68.546875 C 128.964844 67.757812 128.386719 67.128906 127.78125 66.582031 C 127.339844 66.179688 126.835938 65.847656 126.34375 65.503906 Z M 126.34375 65.503906 " fill-opacity="1" fill-rule="nonzero"/><path fill="#820f0f" d="M 145.085938 67.308594 C 145.109375 67.296875 145.160156 67.269531 145.183594 67.257812 C 145.417969 67.308594 145.601562 67.484375 145.773438 67.648438 C 146.265625 68.171875 146.609375 68.8125 146.898438 69.464844 C 147.089844 69.921875 147.300781 70.378906 147.371094 70.871094 C 147.390625 71.082031 147.410156 71.332031 147.253906 71.5 C 147.15625 71.566406 147.046875 71.484375 146.976562 71.421875 C 146.335938 70.792969 146.015625 69.925781 145.609375 69.140625 C 145.398438 68.683594 145.167969 68.230469 145.050781 67.738281 C 145.027344 67.597656 144.984375 67.425781 145.085938 67.308594 Z M 145.085938 67.308594 " fill-opacity="1" fill-rule="nonzero"/><path fill="#820f0f" d="M 102.113281 68.867188 C 103.191406 68.671875 104.332031 68.683594 105.363281 69.085938 C 106.269531 69.425781 107.050781 70.042969 107.65625 70.792969 C 108.40625 71.730469 108.90625 72.84375 109.242188 73.992188 C 109.601562 75.25 109.773438 76.5625 109.753906 77.871094 C 109.6875 79.035156 109.53125 80.203125 109.222656 81.328125 C 108.933594 82.386719 108.496094 83.421875 107.832031 84.300781 C 107.246094 85.078125 106.464844 85.714844 105.566406 86.089844 C 104.542969 86.523438 103.402344 86.625 102.308594 86.484375 C 103.261719 86.390625 104.203125 86.082031 104.976562 85.503906 C 105.847656 84.859375 106.476562 83.933594 106.910156 82.945312 C 107.464844 81.664062 107.746094 80.277344 107.90625 78.894531 C 108.082031 77.546875 108.058594 76.179688 107.890625 74.832031 C 107.742188 73.722656 107.472656 72.613281 106.953125 71.613281 C 106.511719 70.753906 105.859375 69.988281 105.015625 69.496094 C 104.148438 68.976562 103.113281 68.800781 102.113281 68.867188 Z M 102.113281 68.867188 " fill-opacity="1" fill-rule="nonzero"/><path fill="#820f0f" d="M 66.085938 71.863281 C 66.585938 72.722656 67.125 73.570312 67.828125 74.28125 C 68.238281 74.683594 68.714844 75.035156 69.253906 75.242188 C 69.824219 75.464844 70.441406 75.523438 71.046875 75.566406 C 78.378906 76.011719 85.714844 76.425781 93.046875 76.855469 C 93.492188 76.898438 93.941406 76.875 94.382812 76.953125 C 90.910156 76.875 87.433594 76.84375 83.960938 76.78125 C 79.496094 76.71875 75.035156 76.640625 70.570312 76.578125 C 69.992188 76.550781 69.40625 76.605469 68.835938 76.484375 C 67.984375 76.292969 67.316406 75.585938 67.054688 74.769531 C 66.734375 73.796875 66.390625 72.835938 66.085938 71.863281 Z M 66.085938 71.863281 " fill-opacity="1" fill-rule="nonzero"/><path fill="#820f0f" d="M 71.347656 77.9375 C 71.605469 77.90625 71.859375 77.84375 72.121094 77.847656 C 76.964844 78.039062 81.808594 78.210938 86.652344 78.355469 C 88.40625 78.398438 90.160156 78.457031 91.917969 78.464844 C 92.113281 78.46875 92.308594 78.484375 92.503906 78.511719 C 91.808594 78.492188 91.113281 78.570312 90.417969 78.578125 C 86.015625 78.757812 81.609375 78.769531 77.207031 78.75 C 73.734375 78.734375 70.261719 78.671875 66.792969 78.589844 C 68.308594 78.359375 69.828125 78.15625 71.347656 77.9375 Z M 71.347656 77.9375 " fill-opacity="1" fill-rule="nonzero"/><g clip-path="url(#d67935c438)"><path fill="#820f0f" d="M 112.050781 78.472656 C 112.089844 78.367188 112.207031 78.382812 112.296875 78.382812 C 114.894531 78.507812 117.496094 78.621094 120.097656 78.558594 C 120.503906 79.359375 121.199219 80.019531 122.050781 80.332031 C 122.597656 80.539062 123.191406 80.625 123.78125 80.597656 C 128.476562 80.894531 133.179688 81.140625 137.886719 81.074219 C 139.5625 81.011719 141.238281 80.910156 142.910156 80.753906 C 144.207031 80.628906 145.507812 80.472656 146.785156 80.203125 C 147.332031 80.082031 147.882812 79.949219 148.40625 79.730469 C 148.675781 79.609375 148.960938 79.476562 149.125 79.21875 C 149.394531 79.5625 149.515625 79.992188 149.636719 80.40625 C 149.75 80.796875 149.675781 81.242188 149.40625 81.550781 C 149.019531 82.007812 148.441406 82.238281 147.890625 82.425781 C 146.734375 82.792969 145.527344 82.949219 144.332031 83.089844 C 141.21875 83.417969 138.089844 83.511719 134.964844 83.617188 C 128.503906 83.828125 122.03125 83.636719 115.589844 83.089844 C 114.550781 82.996094 113.511719 82.902344 112.476562 82.777344 C 112.394531 82.757812 112.261719 82.769531 112.25 82.660156 C 112.253906 81.261719 112.175781 79.863281 112.050781 78.472656 Z M 112.050781 78.472656 " fill-opacity="1" fill-rule="nonzero"/></g><g clip-path="url(#5554c27a87)"><path fill="#820f0f" d="M 107.519531 85.464844 C 109.269531 83.953125 110.167969 81.632812 110.265625 79.355469 C 110.421875 79.984375 110.414062 80.640625 110.457031 81.28125 C 110.476562 82.136719 110.503906 82.992188 110.453125 83.847656 C 110.492188 84.023438 110.710938 84.074219 110.863281 84.105469 C 111.609375 84.21875 112.367188 84.210938 113.117188 84.269531 C 112.90625 84.621094 112.585938 84.890625 112.296875 85.179688 C 111.851562 85.609375 111.386719 86.015625 110.910156 86.410156 C 110.363281 86.855469 109.613281 86.824219 108.953125 86.90625 C 107.527344 87.007812 106.089844 87.117188 104.664062 86.984375 C 105.707031 86.679688 106.695312 86.175781 107.519531 85.464844 Z M 107.519531 85.464844 " fill-opacity="1" fill-rule="nonzero"/></g><path fill="#820f0f" d="M 55.554688 80.53125 C 56.875 80.632812 58.191406 80.800781 59.507812 80.925781 C 65.601562 81.539062 71.703125 82.125 77.804688 82.65625 C 81.886719 83.007812 85.96875 83.34375 90.0625 83.578125 C 91.066406 83.621094 92.066406 83.695312 93.070312 83.703125 C 91.449219 83.726562 89.828125 83.683594 88.207031 83.671875 C 84.101562 83.636719 79.996094 83.601562 75.890625 83.585938 C 75.597656 83.578125 75.300781 83.59375 75.007812 83.574219 C 68.523438 82.566406 62.042969 81.535156 55.554688 80.53125 Z M 55.554688 80.53125 " fill-opacity="1" fill-rule="nonzero"/><g clip-path="url(#6b6a1da19b)"><path fill="#820f0f" d="M 138.488281 84.59375 C 139.757812 84.558594 141.027344 84.5 142.292969 84.394531 C 142.074219 84.789062 141.703125 85.070312 141.363281 85.359375 C 139.789062 86.585938 137.863281 87.414062 135.859375 87.53125 C 134.578125 87.605469 133.28125 87.351562 132.125 86.804688 C 131.007812 86.285156 130.015625 85.515625 129.160156 84.628906 C 132.269531 84.667969 135.378906 84.675781 138.488281 84.59375 Z M 138.488281 84.59375 " fill-opacity="1" fill-rule="nonzero"/></g><g fill="#820f0f" fill-opacity="1"><g transform="translate(10.527833, 113.078272)"><g><path d="M 1.9375 0.1875 C 1.394531 0.1875 1.007812 0.00390625 0.78125 -0.359375 C 0.550781 -0.734375 0.5625 -1.179688 0.8125 -1.703125 L 6.890625 -15.171875 C 7.085938 -15.617188 7.328125 -15.9375 7.609375 -16.125 C 7.890625 -16.320312 8.21875 -16.421875 8.59375 -16.421875 C 8.945312 -16.421875 9.265625 -16.320312 9.546875 -16.125 C 9.828125 -15.9375 10.066406 -15.617188 10.265625 -15.171875 L 16.375 -1.703125 C 16.625 -1.160156 16.640625 -0.707031 16.421875 -0.34375 C 16.203125 0.0078125 15.832031 0.1875 15.3125 0.1875 C 14.882812 0.1875 14.550781 0.0820312 14.3125 -0.125 C 14.070312 -0.332031 13.863281 -0.648438 13.6875 -1.078125 L 12.53125 -3.75 L 4.609375 -3.75 L 3.484375 -1.078125 C 3.273438 -0.640625 3.0625 -0.316406 2.84375 -0.109375 C 2.632812 0.0859375 2.332031 0.1875 1.9375 0.1875 Z M 8.546875 -13.03125 L 5.625 -6.109375 L 11.515625 -6.109375 L 8.59375 -13.03125 Z M 8.546875 -13.03125 "/></g></g></g><g fill="#820f0f" fill-opacity="1"><g transform="translate(31.068126, 113.078272)"><g><path d="M 8.515625 0.234375 C 6.296875 0.234375 4.597656 -0.34375 3.421875 -1.5 C 2.242188 -2.664062 1.65625 -4.382812 1.65625 -6.65625 L 1.65625 -14.921875 C 1.65625 -15.921875 2.144531 -16.421875 3.125 -16.421875 C 4.113281 -16.421875 4.609375 -15.921875 4.609375 -14.921875 L 4.609375 -6.671875 C 4.609375 -5.210938 4.941406 -4.117188 5.609375 -3.390625 C 6.273438 -2.660156 7.242188 -2.296875 8.515625 -2.296875 C 11.109375 -2.296875 12.40625 -3.753906 12.40625 -6.671875 L 12.40625 -14.921875 C 12.40625 -15.921875 12.898438 -16.421875 13.890625 -16.421875 C 14.859375 -16.421875 15.34375 -15.921875 15.34375 -14.921875 L 15.34375 -6.65625 C 15.34375 -4.382812 14.765625 -2.664062 13.609375 -1.5 C 12.460938 -0.34375 10.765625 0.234375 8.515625 0.234375 Z M 8.515625 0.234375 "/></g></g></g><g fill="#820f0f" fill-opacity="1"><g transform="translate(51.470259, 113.078272)"><g><path d="M 7.15625 0.1875 C 6.175781 0.1875 5.6875 -0.316406 5.6875 -1.328125 L 5.6875 -13.765625 L 1.203125 -13.765625 C 0.359375 -13.765625 -0.0625 -14.179688 -0.0625 -15.015625 C -0.0625 -15.828125 0.359375 -16.234375 1.203125 -16.234375 L 13.125 -16.234375 C 13.96875 -16.234375 14.390625 -15.828125 14.390625 -15.015625 C 14.390625 -14.179688 13.96875 -13.765625 13.125 -13.765625 L 8.640625 -13.765625 L 8.640625 -1.328125 C 8.640625 -0.316406 8.144531 0.1875 7.15625 0.1875 Z M 7.15625 0.1875 "/></g></g></g><g fill="#820f0f" fill-opacity="1"><g transform="translate(69.178299, 113.078272)"><g><path d="M 9.046875 0.234375 C 7.484375 0.234375 6.113281 -0.109375 4.9375 -0.796875 C 3.757812 -1.492188 2.847656 -2.46875 2.203125 -3.71875 C 1.566406 -4.96875 1.25 -6.4375 1.25 -8.125 C 1.25 -9.832031 1.566406 -11.304688 2.203125 -12.546875 C 2.847656 -13.796875 3.753906 -14.757812 4.921875 -15.4375 C 6.085938 -16.125 7.460938 -16.46875 9.046875 -16.46875 C 10.628906 -16.46875 12.003906 -16.125 13.171875 -15.4375 C 14.335938 -14.757812 15.242188 -13.796875 15.890625 -12.546875 C 16.535156 -11.304688 16.859375 -9.84375 16.859375 -8.15625 C 16.859375 -6.445312 16.535156 -4.96875 15.890625 -3.71875 C 15.242188 -2.46875 14.335938 -1.492188 13.171875 -0.796875 C 12.003906 -0.109375 10.628906 0.234375 9.046875 0.234375 Z M 9.046875 -2.296875 C 10.535156 -2.296875 11.691406 -2.8125 12.515625 -3.84375 C 13.347656 -4.875 13.765625 -6.300781 13.765625 -8.125 C 13.765625 -9.96875 13.351562 -11.394531 12.53125 -12.40625 C 11.71875 -13.425781 10.554688 -13.9375 9.046875 -13.9375 C 7.554688 -13.9375 6.394531 -13.425781 5.5625 -12.40625 C 4.738281 -11.394531 4.328125 -9.96875 4.328125 -8.125 C 4.328125 -6.300781 4.738281 -4.875 5.5625 -3.84375 C 6.394531 -2.8125 7.554688 -2.296875 9.046875 -2.296875 Z M 9.046875 -2.296875 "/></g></g></g><g fill="#820f0f" fill-opacity="1"><g transform="translate(90.662675, 113.078272)"><g><path d="M 9.515625 0.1875 C 9.054688 0.1875 8.691406 0.0625 8.421875 -0.1875 C 8.160156 -0.445312 8.03125 -0.816406 8.03125 -1.296875 L 8.03125 -3.09375 L 2.34375 -3.09375 C 1.875 -3.09375 1.492188 -3.191406 1.203125 -3.390625 C 0.921875 -3.585938 0.78125 -3.894531 0.78125 -4.3125 C 0.78125 -4.570312 0.84375 -4.847656 0.96875 -5.140625 C 1.101562 -5.429688 1.34375 -5.8125 1.6875 -6.28125 L 7.984375 -15.4375 C 8.203125 -15.757812 8.441406 -16.003906 8.703125 -16.171875 C 8.960938 -16.335938 9.265625 -16.421875 9.609375 -16.421875 C 10.003906 -16.421875 10.332031 -16.300781 10.59375 -16.0625 C 10.851562 -15.820312 10.984375 -15.453125 10.984375 -14.953125 L 10.984375 -5.53125 L 12.109375 -5.53125 C 13.003906 -5.53125 13.453125 -5.125 13.453125 -4.3125 C 13.453125 -3.5 13.003906 -3.09375 12.109375 -3.09375 L 10.984375 -3.09375 L 10.984375 -1.296875 C 10.984375 -0.816406 10.851562 -0.445312 10.59375 -0.1875 C 10.332031 0.0625 9.972656 0.1875 9.515625 0.1875 Z M 8.03125 -5.53125 L 8.03125 -11.71875 L 3.796875 -5.53125 Z M 8.03125 -5.53125 "/></g></g></g><g fill="#820f0f" fill-opacity="1"><g transform="translate(107.88716, 113.078272)"><g><path d="M 7.375 0.234375 C 6.34375 0.234375 5.335938 0.117188 4.359375 -0.109375 C 3.390625 -0.335938 2.539062 -0.6875 1.8125 -1.15625 C 1.46875 -1.382812 1.253906 -1.664062 1.171875 -2 C 1.097656 -2.34375 1.125 -2.660156 1.25 -2.953125 C 1.382812 -3.253906 1.59375 -3.460938 1.875 -3.578125 C 2.15625 -3.691406 2.484375 -3.632812 2.859375 -3.40625 C 3.535156 -3.007812 4.25 -2.71875 5 -2.53125 C 5.75 -2.34375 6.539062 -2.25 7.375 -2.25 C 8.582031 -2.25 9.460938 -2.453125 10.015625 -2.859375 C 10.566406 -3.273438 10.84375 -3.800781 10.84375 -4.4375 C 10.84375 -4.976562 10.644531 -5.398438 10.25 -5.703125 C 9.863281 -6.015625 9.195312 -6.269531 8.25 -6.46875 L 5.71875 -7 C 2.820312 -7.613281 1.375 -9.097656 1.375 -11.453125 C 1.375 -12.460938 1.644531 -13.34375 2.1875 -14.09375 C 2.726562 -14.84375 3.472656 -15.425781 4.421875 -15.84375 C 5.367188 -16.257812 6.46875 -16.46875 7.71875 -16.46875 C 8.632812 -16.46875 9.503906 -16.351562 10.328125 -16.125 C 11.160156 -15.894531 11.910156 -15.554688 12.578125 -15.109375 C 12.878906 -14.890625 13.0625 -14.625 13.125 -14.3125 C 13.1875 -14 13.148438 -13.707031 13.015625 -13.4375 C 12.878906 -13.164062 12.660156 -12.976562 12.359375 -12.875 C 12.054688 -12.78125 11.707031 -12.847656 11.3125 -13.078125 C 10.738281 -13.398438 10.160156 -13.628906 9.578125 -13.765625 C 8.992188 -13.910156 8.363281 -13.984375 7.6875 -13.984375 C 6.632812 -13.984375 5.804688 -13.757812 5.203125 -13.3125 C 4.609375 -12.863281 4.3125 -12.28125 4.3125 -11.5625 C 4.3125 -11.007812 4.492188 -10.566406 4.859375 -10.234375 C 5.222656 -9.910156 5.851562 -9.65625 6.75 -9.46875 L 9.265625 -8.9375 C 10.773438 -8.613281 11.898438 -8.101562 12.640625 -7.40625 C 13.390625 -6.71875 13.765625 -5.800781 13.765625 -4.65625 C 13.765625 -3.6875 13.503906 -2.832031 12.984375 -2.09375 C 12.460938 -1.351562 11.722656 -0.78125 10.765625 -0.375 C 9.804688 0.03125 8.675781 0.234375 7.375 0.234375 Z M 7.375 0.234375 "/></g></g></g><g fill="#820f0f" fill-opacity="1"><g transform="translate(125.825463, 113.078272)"><g><path d="M 1.9375 0.1875 C 1.394531 0.1875 1.007812 0.00390625 0.78125 -0.359375 C 0.550781 -0.734375 0.5625 -1.179688 0.8125 -1.703125 L 6.890625 -15.171875 C 7.085938 -15.617188 7.328125 -15.9375 7.609375 -16.125 C 7.890625 -16.320312 8.21875 -16.421875 8.59375 -16.421875 C 8.945312 -16.421875 9.265625 -16.320312 9.546875 -16.125 C 9.828125 -15.9375 10.066406 -15.617188 10.265625 -15.171875 L 16.375 -1.703125 C 16.625 -1.160156 16.640625 -0.707031 16.421875 -0.34375 C 16.203125 0.0078125 15.832031 0.1875 15.3125 0.1875 C 14.882812 0.1875 14.550781 0.0820312 14.3125 -0.125 C 14.070312 -0.332031 13.863281 -0.648438 13.6875 -1.078125 L 12.53125 -3.75 L 4.609375 -3.75 L 3.484375 -1.078125 C 3.273438 -0.640625 3.0625 -0.316406 2.84375 -0.109375 C 2.632812 0.0859375 2.332031 0.1875 1.9375 0.1875 Z M 8.546875 -13.03125 L 5.625 -6.109375 L 11.515625 -6.109375 L 8.59375 -13.03125 Z M 8.546875 -13.03125 "/></g></g></g><g fill="#820f0f" fill-opacity="1"><g transform="translate(146.365756, 113.078272)"><g><path d="M 3.265625 0 C 2.265625 0 1.765625 -0.503906 1.765625 -1.515625 L 1.765625 -14.8125 C 1.765625 -15.8125 2.257812 -16.3125 3.25 -16.3125 C 4.226562 -16.3125 4.71875 -15.8125 4.71875 -14.8125 L 4.71875 -2.515625 L 11.40625 -2.515625 C 12.257812 -2.515625 12.6875 -2.097656 12.6875 -1.265625 C 12.6875 -0.421875 12.257812 0 11.40625 0 Z M 3.265625 0 "/></g></g></g><g fill="#820f0f" fill-opacity="1"><g transform="translate(162.715235, 113.078272)"><g><path d="M 3.34375 0 C 2.289062 0 1.765625 -0.519531 1.765625 -1.5625 L 1.765625 -14.671875 C 1.765625 -15.710938 2.289062 -16.234375 3.34375 -16.234375 L 11.5625 -16.234375 C 12.363281 -16.234375 12.765625 -15.847656 12.765625 -15.078125 C 12.765625 -14.285156 12.363281 -13.890625 11.5625 -13.890625 L 4.609375 -13.890625 L 4.609375 -9.421875 L 11.0625 -9.421875 C 11.851562 -9.421875 12.25 -9.03125 12.25 -8.25 C 12.25 -7.46875 11.851562 -7.078125 11.0625 -7.078125 L 4.609375 -7.078125 L 4.609375 -2.34375 L 11.5625 -2.34375 C 12.363281 -2.34375 12.765625 -1.953125 12.765625 -1.171875 C 12.765625 -0.390625 12.363281 0 11.5625 0 Z M 3.34375 0 "/></g></g></g><g fill="#820f0f" fill-opacity="1"><g transform="translate(44.102536, 130.078906)"><g><path d="M 0.515625 -2.875 L 0.515625 -3.34375 L 3.1875 -3.34375 L 3.1875 -2.875 Z M 0.515625 -2.875 "/></g></g></g><g fill="#820f0f" fill-opacity="1"><g transform="translate(47.807229, 130.078906)"><g><path d="M 1.15625 0 L 1.15625 -8.21875 L 1.734375 -8.21875 L 1.734375 -0.546875 L 5.65625 -0.546875 L 5.65625 0 Z M 1.15625 0 "/></g></g></g><g fill="#820f0f" fill-opacity="1"><g transform="translate(53.715622, 130.078906)"><g><path d="M 1.5 -6.109375 L 1.5 -2.15625 C 1.5 -1.539062 1.628906 -1.09375 1.890625 -0.8125 C 2.148438 -0.53125 2.550781 -0.390625 3.09375 -0.390625 C 3.820312 -0.390625 4.359375 -0.570312 4.703125 -0.9375 C 5.046875 -1.3125 5.21875 -1.910156 5.21875 -2.734375 L 5.21875 -6.109375 L 5.765625 -6.109375 L 5.765625 0 L 5.296875 0 L 5.203125 -0.84375 L 5.15625 -0.84375 C 4.757812 -0.207031 4.054688 0.109375 3.046875 0.109375 C 1.648438 0.109375 0.953125 -0.632812 0.953125 -2.125 L 0.953125 -6.109375 Z M 1.5 -6.109375 "/></g></g></g><g fill="#820f0f" fill-opacity="1"><g transform="translate(60.506616, 130.078906)"><g><path d="M 2.53125 -3.140625 L 0.390625 -6.109375 L 1.03125 -6.109375 L 2.859375 -3.53125 L 4.65625 -6.109375 L 5.28125 -6.109375 L 3.171875 -3.140625 L 5.421875 0 L 4.78125 0 L 2.859375 -2.734375 L 0.921875 0 L 0.3125 0 Z M 2.53125 -3.140625 "/></g></g></g><g fill="#820f0f" fill-opacity="1"><g transform="translate(66.240733, 130.078906)"><g><path d="M 1.5 -6.109375 L 1.5 -2.15625 C 1.5 -1.539062 1.628906 -1.09375 1.890625 -0.8125 C 2.148438 -0.53125 2.550781 -0.390625 3.09375 -0.390625 C 3.820312 -0.390625 4.359375 -0.570312 4.703125 -0.9375 C 5.046875 -1.3125 5.21875 -1.910156 5.21875 -2.734375 L 5.21875 -6.109375 L 5.765625 -6.109375 L 5.765625 0 L 5.296875 0 L 5.203125 -0.84375 L 5.15625 -0.84375 C 4.757812 -0.207031 4.054688 0.109375 3.046875 0.109375 C 1.648438 0.109375 0.953125 -0.632812 0.953125 -2.125 L 0.953125 -6.109375 Z M 1.5 -6.109375 "/></g></g></g><g fill="#820f0f" fill-opacity="1"><g transform="translate(73.031727, 130.078906)"><g><path d="M 3.4375 -6.234375 C 3.6875 -6.234375 3.960938 -6.207031 4.265625 -6.15625 L 4.15625 -5.625 C 3.894531 -5.6875 3.628906 -5.71875 3.359375 -5.71875 C 2.835938 -5.71875 2.410156 -5.492188 2.078125 -5.046875 C 1.742188 -4.609375 1.578125 -4.050781 1.578125 -3.375 L 1.578125 0 L 1.015625 0 L 1.015625 -6.109375 L 1.5 -6.109375 L 1.546875 -5.015625 L 1.59375 -5.015625 C 1.84375 -5.460938 2.109375 -5.773438 2.390625 -5.953125 C 2.679688 -6.140625 3.03125 -6.234375 3.4375 -6.234375 Z M 3.4375 -6.234375 "/></g></g></g><g fill="#820f0f" fill-opacity="1"><g transform="translate(77.512212, 130.078906)"><g><path d="M 0 -6.109375 L 0.578125 -6.109375 L 1.859375 -2.6875 C 2.253906 -1.632812 2.503906 -0.921875 2.609375 -0.546875 L 2.640625 -0.546875 C 2.804688 -1.035156 3.066406 -1.757812 3.421875 -2.71875 L 4.71875 -6.109375 L 5.28125 -6.109375 L 2.546875 0.984375 C 2.328125 1.566406 2.140625 1.957031 1.984375 2.15625 C 1.835938 2.363281 1.660156 2.515625 1.453125 2.609375 C 1.253906 2.710938 1.015625 2.765625 0.734375 2.765625 C 0.523438 2.765625 0.285156 2.722656 0.015625 2.640625 L 0.015625 2.171875 C 0.234375 2.222656 0.46875 2.25 0.71875 2.25 C 0.914062 2.25 1.085938 2.203125 1.234375 2.109375 C 1.378906 2.023438 1.507812 1.890625 1.625 1.703125 C 1.75 1.515625 1.882812 1.210938 2.03125 0.796875 C 2.1875 0.390625 2.289062 0.125 2.34375 0 Z M 0 -6.109375 "/></g></g></g><g fill="#820f0f" fill-opacity="1"><g transform="translate(82.796595, 130.078906)"><g/></g></g><g fill="#820f0f" fill-opacity="1"><g transform="translate(85.78733, 130.078906)"><g><path d="M 4.671875 -7.828125 C 3.640625 -7.828125 2.828125 -7.492188 2.234375 -6.828125 C 1.640625 -6.171875 1.34375 -5.269531 1.34375 -4.125 C 1.34375 -2.945312 1.625 -2.035156 2.1875 -1.390625 C 2.75 -0.742188 3.546875 -0.421875 4.578125 -0.421875 C 5.273438 -0.421875 5.910156 -0.507812 6.484375 -0.6875 L 6.484375 -0.171875 C 5.941406 0.015625 5.265625 0.109375 4.453125 0.109375 C 3.296875 0.109375 2.382812 -0.257812 1.71875 -1 C 1.050781 -1.75 0.71875 -2.789062 0.71875 -4.125 C 0.71875 -4.96875 0.875 -5.707031 1.1875 -6.34375 C 1.507812 -6.976562 1.96875 -7.46875 2.5625 -7.8125 C 3.15625 -8.164062 3.847656 -8.34375 4.640625 -8.34375 C 5.441406 -8.34375 6.160156 -8.191406 6.796875 -7.890625 L 6.5625 -7.375 C 5.957031 -7.675781 5.328125 -7.828125 4.671875 -7.828125 Z M 4.671875 -7.828125 "/></g></g></g><g fill="#820f0f" fill-opacity="1"><g transform="translate(92.938112, 130.078906)"><g><path d="M 4.734375 0 L 4.59375 -0.96875 L 4.546875 -0.96875 C 4.242188 -0.570312 3.925781 -0.289062 3.59375 -0.125 C 3.269531 0.03125 2.890625 0.109375 2.453125 0.109375 C 1.847656 0.109375 1.378906 -0.0390625 1.046875 -0.34375 C 0.710938 -0.65625 0.546875 -1.082031 0.546875 -1.625 C 0.546875 -2.21875 0.796875 -2.679688 1.296875 -3.015625 C 1.796875 -3.347656 2.515625 -3.519531 3.453125 -3.53125 L 4.609375 -3.578125 L 4.609375 -3.96875 C 4.609375 -4.550781 4.488281 -4.988281 4.25 -5.28125 C 4.019531 -5.582031 3.644531 -5.734375 3.125 -5.734375 C 2.550781 -5.734375 1.960938 -5.578125 1.359375 -5.265625 L 1.15625 -5.75 C 1.820312 -6.0625 2.484375 -6.21875 3.140625 -6.21875 C 3.816406 -6.21875 4.316406 -6.039062 4.640625 -5.6875 C 4.972656 -5.34375 5.140625 -4.800781 5.140625 -4.0625 L 5.140625 0 Z M 2.484375 -0.390625 C 3.140625 -0.390625 3.65625 -0.578125 4.03125 -0.953125 C 4.40625 -1.328125 4.59375 -1.84375 4.59375 -2.5 L 4.59375 -3.109375 L 3.53125 -3.0625 C 2.664062 -3.019531 2.050781 -2.882812 1.6875 -2.65625 C 1.320312 -2.4375 1.140625 -2.085938 1.140625 -1.609375 C 1.140625 -1.222656 1.253906 -0.921875 1.484375 -0.703125 C 1.722656 -0.492188 2.054688 -0.390625 2.484375 -0.390625 Z M 2.484375 -0.390625 "/></g></g></g><g fill="#820f0f" fill-opacity="1"><g transform="translate(99.037642, 130.078906)"><g><path d="M 3.4375 -6.234375 C 3.6875 -6.234375 3.960938 -6.207031 4.265625 -6.15625 L 4.15625 -5.625 C 3.894531 -5.6875 3.628906 -5.71875 3.359375 -5.71875 C 2.835938 -5.71875 2.410156 -5.492188 2.078125 -5.046875 C 1.742188 -4.609375 1.578125 -4.050781 1.578125 -3.375 L 1.578125 0 L 1.015625 0 L 1.015625 -6.109375 L 1.5 -6.109375 L 1.546875 -5.015625 L 1.59375 -5.015625 C 1.84375 -5.460938 2.109375 -5.773438 2.390625 -5.953125 C 2.679688 -6.140625 3.03125 -6.234375 3.4375 -6.234375 Z M 3.4375 -6.234375 "/></g></g></g><g fill="#820f0f" fill-opacity="1"><g transform="translate(103.518127, 130.078906)"><g/></g></g><g fill="#820f0f" fill-opacity="1"><g transform="translate(106.508863, 130.078906)"><g><path d="M 3.265625 -6.234375 C 3.703125 -6.234375 4.082031 -6.148438 4.40625 -5.984375 C 4.726562 -5.828125 5.019531 -5.550781 5.28125 -5.15625 L 5.3125 -5.15625 C 5.289062 -5.632812 5.28125 -6.097656 5.28125 -6.546875 L 5.28125 -8.75 L 5.828125 -8.75 L 5.828125 0 L 5.453125 0 L 5.3125 -0.9375 L 5.28125 -0.9375 C 4.8125 -0.238281 4.140625 0.109375 3.265625 0.109375 C 2.421875 0.109375 1.773438 -0.148438 1.328125 -0.671875 C 0.890625 -1.203125 0.671875 -1.96875 0.671875 -2.96875 C 0.671875 -4.019531 0.890625 -4.828125 1.328125 -5.390625 C 1.773438 -5.953125 2.421875 -6.234375 3.265625 -6.234375 Z M 3.265625 -5.71875 C 2.597656 -5.71875 2.09375 -5.484375 1.75 -5.015625 C 1.414062 -4.546875 1.25 -3.867188 1.25 -2.984375 C 1.25 -1.242188 1.921875 -0.375 3.265625 -0.375 C 3.960938 -0.375 4.472656 -0.570312 4.796875 -0.96875 C 5.117188 -1.375 5.28125 -2.039062 5.28125 -2.96875 L 5.28125 -3.0625 C 5.28125 -4.007812 5.117188 -4.6875 4.796875 -5.09375 C 4.484375 -5.507812 3.972656 -5.71875 3.265625 -5.71875 Z M 3.265625 -5.71875 "/></g></g></g><g fill="#820f0f" fill-opacity="1"><g transform="translate(113.361699, 130.078906)"><g><path d="M 3.484375 0.109375 C 2.597656 0.109375 1.90625 -0.160156 1.40625 -0.703125 C 0.914062 -1.253906 0.671875 -2.023438 0.671875 -3.015625 C 0.671875 -3.984375 0.910156 -4.757812 1.390625 -5.34375 C 1.867188 -5.9375 2.515625 -6.234375 3.328125 -6.234375 C 4.046875 -6.234375 4.613281 -5.976562 5.03125 -5.46875 C 5.445312 -4.96875 5.65625 -4.289062 5.65625 -3.4375 L 5.65625 -2.984375 L 1.25 -2.984375 C 1.257812 -2.140625 1.457031 -1.492188 1.84375 -1.046875 C 2.226562 -0.609375 2.773438 -0.390625 3.484375 -0.390625 C 3.835938 -0.390625 4.144531 -0.414062 4.40625 -0.46875 C 4.675781 -0.519531 5.015625 -0.625 5.421875 -0.78125 L 5.421875 -0.28125 C 5.066406 -0.125 4.742188 -0.0195312 4.453125 0.03125 C 4.160156 0.0820312 3.835938 0.109375 3.484375 0.109375 Z M 3.328125 -5.734375 C 2.742188 -5.734375 2.269531 -5.539062 1.90625 -5.15625 C 1.550781 -4.769531 1.34375 -4.207031 1.28125 -3.46875 L 5.0625 -3.46875 C 5.0625 -4.175781 4.90625 -4.726562 4.59375 -5.125 C 4.289062 -5.53125 3.867188 -5.734375 3.328125 -5.734375 Z M 3.328125 -5.734375 "/></g></g></g><g fill="#820f0f" fill-opacity="1"><g transform="translate(119.680471, 130.078906)"><g><path d="M 4.734375 0 L 4.59375 -0.96875 L 4.546875 -0.96875 C 4.242188 -0.570312 3.925781 -0.289062 3.59375 -0.125 C 3.269531 0.03125 2.890625 0.109375 2.453125 0.109375 C 1.847656 0.109375 1.378906 -0.0390625 1.046875 -0.34375 C 0.710938 -0.65625 0.546875 -1.082031 0.546875 -1.625 C 0.546875 -2.21875 0.796875 -2.679688 1.296875 -3.015625 C 1.796875 -3.347656 2.515625 -3.519531 3.453125 -3.53125 L 4.609375 -3.578125 L 4.609375 -3.96875 C 4.609375 -4.550781 4.488281 -4.988281 4.25 -5.28125 C 4.019531 -5.582031 3.644531 -5.734375 3.125 -5.734375 C 2.550781 -5.734375 1.960938 -5.578125 1.359375 -5.265625 L 1.15625 -5.75 C 1.820312 -6.0625 2.484375 -6.21875 3.140625 -6.21875 C 3.816406 -6.21875 4.316406 -6.039062 4.640625 -5.6875 C 4.972656 -5.34375 5.140625 -4.800781 5.140625 -4.0625 L 5.140625 0 Z M 2.484375 -0.390625 C 3.140625 -0.390625 3.65625 -0.578125 4.03125 -0.953125 C 4.40625 -1.328125 4.59375 -1.84375 4.59375 -2.5 L 4.59375 -3.109375 L 3.53125 -3.0625 C 2.664062 -3.019531 2.050781 -2.882812 1.6875 -2.65625 C 1.320312 -2.4375 1.140625 -2.085938 1.140625 -1.609375 C 1.140625 -1.222656 1.253906 -0.921875 1.484375 -0.703125 C 1.722656 -0.492188 2.054688 -0.390625 2.484375 -0.390625 Z M 2.484375 -0.390625 "/></g></g></g><g fill="#820f0f" fill-opacity="1"><g transform="translate(125.780002, 130.078906)"><g><path d="M 1.578125 0 L 1.015625 0 L 1.015625 -8.75 L 1.578125 -8.75 Z M 1.578125 0 "/></g></g></g><g fill="#820f0f" fill-opacity="1"><g transform="translate(128.382845, 130.078906)"><g><path d="M 3.484375 0.109375 C 2.597656 0.109375 1.90625 -0.160156 1.40625 -0.703125 C 0.914062 -1.253906 0.671875 -2.023438 0.671875 -3.015625 C 0.671875 -3.984375 0.910156 -4.757812 1.390625 -5.34375 C 1.867188 -5.9375 2.515625 -6.234375 3.328125 -6.234375 C 4.046875 -6.234375 4.613281 -5.976562 5.03125 -5.46875 C 5.445312 -4.96875 5.65625 -4.289062 5.65625 -3.4375 L 5.65625 -2.984375 L 1.25 -2.984375 C 1.257812 -2.140625 1.457031 -1.492188 1.84375 -1.046875 C 2.226562 -0.609375 2.773438 -0.390625 3.484375 -0.390625 C 3.835938 -0.390625 4.144531 -0.414062 4.40625 -0.46875 C 4.675781 -0.519531 5.015625 -0.625 5.421875 -0.78125 L 5.421875 -0.28125 C 5.066406 -0.125 4.742188 -0.0195312 4.453125 0.03125 C 4.160156 0.0820312 3.835938 0.109375 3.484375 0.109375 Z M 3.328125 -5.734375 C 2.742188 -5.734375 2.269531 -5.539062 1.90625 -5.15625 C 1.550781 -4.769531 1.34375 -4.207031 1.28125 -3.46875 L 5.0625 -3.46875 C 5.0625 -4.175781 4.90625 -4.726562 4.59375 -5.125 C 4.289062 -5.53125 3.867188 -5.734375 3.328125 -5.734375 Z M 3.328125 -5.734375 "/></g></g></g><g fill="#820f0f" fill-opacity="1"><g transform="translate(134.701617, 130.078906)"><g><path d="M 3.4375 -6.234375 C 3.6875 -6.234375 3.960938 -6.207031 4.265625 -6.15625 L 4.15625 -5.625 C 3.894531 -5.6875 3.628906 -5.71875 3.359375 -5.71875 C 2.835938 -5.71875 2.410156 -5.492188 2.078125 -5.046875 C 1.742188 -4.609375 1.578125 -4.050781 1.578125 -3.375 L 1.578125 0 L 1.015625 0 L 1.015625 -6.109375 L 1.5 -6.109375 L 1.546875 -5.015625 L 1.59375 -5.015625 C 1.84375 -5.460938 2.109375 -5.773438 2.390625 -5.953125 C 2.679688 -6.140625 3.03125 -6.234375 3.4375 -6.234375 Z M 3.4375 -6.234375 "/></g></g></g><g fill="#820f0f" fill-opacity="1"><g transform="translate(139.182102, 130.078906)"><g><path d="M 0.515625 -2.875 L 0.515625 -3.34375 L 3.1875 -3.34375 L 3.1875 -2.875 Z M 0.515625 -2.875 "/></g></g></g></svg>